<!DOCTYPE svg PUBLIC "-//W3C//DTD SVG 1.1//EN" "http://www.w3.org/Graphics/SVG/1.1/DTD/svg11.dtd">
<!-- Uploaded to: SVG Repo, www.svgrepo.com, Transformed by: SVG Repo Mixer Tools -->
<svg fill="#000000" width="800px" height="800px" viewBox="0 0 24 24" id="church-2" data-name="Flat Line" xmlns="http://www.w3.org/2000/svg" class="icon flat-line">
<g id="SVGRepo_bgCarrier" stroke-width="0"/>
<g id="SVGRepo_tracerCarrier" stroke-linecap="round" stroke-linejoin="round"/>
<g id="SVGRepo_iconCarrier">
<path id="secondary" d="M17.55,11.7,12,8,6.45,11.7a1,1,0,0,0-.45.84V21h4V15h4v6h4V12.54A1,1,0,0,0,17.55,11.7Z" style="fill: #0080ff; stroke-width: 2;"/>
<path id="primary" d="M12,3V8M10,5h4m0,16V15H10v6Zm3.55-9.3L12,8,6.45,11.7a1,1,0,0,0-.45.84V21H18V12.54A1,1,0,0,0,17.55,11.7Z" style="fill: none; stroke: #000000; stroke-linecap: round; stroke-linejoin: round; stroke-width: 2;"/>
</g>
</svg>